# xmcd CD database file
#
# Track frame offsets:
#	150
#	18282
#	33452
#	52253
#	69454
#	96483
#	118680
#	143210
#	162684
#	192143
#
# Disc length: 2705 seconds
#
# Revision: 0
# Processed by: cddbd v1.4PL0 Copyright (c) Steve Scherf et al.
# Submitted via: CDex 1.40Beta9
#
DISCID=930a8f0a
DTITLE=Anatomy of Soul - Ordinary Twillight
DYEAR=2001
DGENRE=Blues
TTITLE0=Let's the white boy sing the blues
TTITLE1=Happiest crying man
TTITLE2=I can't erase tomorrow
TTITLE3=Suzanne
TTITLE4=Stay with the sun
TTITLE5=Good old Hugh
TTITLE6=Too soon
TTITLE7=Hallelujah
TTITLE8=Ordinary twilight
TTITLE9=Did I ever?
EXTD=YEAR: 2001 ID3G: 0
EXTT0=
EXTT1=
EXTT2=
EXTT3=
EXTT4=
EXTT5=
EXTT6=
EXTT7=
EXTT8=
EXTT9=
PLAYORDER=
